<?xml version="1.0" standalone="no"?>
<!DOCTYPE svg PUBLIC "-//W3C//DTD SVG 20010904//EN"
 "http://www.w3.org/TR/2001/REC-SVG-20010904/DTD/svg10.dtd">
<svg version="1.0" xmlns="http://www.w3.org/2000/svg"
 width="512.000000pt" height="512.000000pt" viewBox="0 0 512.000000 512.000000"
 preserveAspectRatio="xMidYMid meet">
<metadata>
Created by potrace 1.14, written by Peter Selinger 2001-2017
</metadata>
<g transform="translate(0.000000,512.000000) scale(0.100000,-0.100000)"
fill="#000000" stroke="none">
<path d="M1149 4956 c-1 -11 -1 -25 0 -30 1 -4 -4 -14 -10 -22 -6 -8 -7 -14
-2 -14 5 0 10 -7 10 -15 0 -8 -3 -15 -6 -15 -3 0 -6 -43 -6 -95 0 -52 2 -95 5
-95 3 0 6 -19 6 -43 2 -49 11 -131 19 -167 3 -14 8 -38 11 -55 26 -143 79
-294 154 -441 l37 -72 -46 -7 c-25 -3 -53 -8 -61 -10 -8 -2 -26 -5 -40 -8 -48
-9 -207 -65 -244 -86 -20 -12 -43 -21 -51 -21 -8 0 -15 -4 -15 -9 0 -5 -16
-15 -35 -22 -19 -7 -35 -16 -35 -19 0 -3 -16 -14 -35 -24 -19 -11 -35 -23 -35
-28 0 -4 -5 -8 -10 -8 -16 0 -110 -77 -103 -84 4 -3 1 -6 -5 -6 -17 0 -162
-158 -162 -177 0 -7 -4 -13 -9 -13 -7 0 -104 -163 -107 -180 0 -3 -4 -13 -7
-22 -4 -10 -10 -26 -14 -35 -3 -10 -7 -20 -8 -23 0 -3 -6 -21 -13 -41 -7 -20
-15 -46 -17 -58 -3 -11 -7 -31 -10 -42 -9 -42 -18 -135 -19 -207 -1 -59 22
-232 37 -277 2 -5 7 -21 11 -35 15 -51 60 -155 73 -171 7 -8 13 -20 13 -25 0
-10 67 -113 102 -158 32 -40 139 -146 178 -176 18 -14 38 -31 45 -37 8 -7 16
-13 19 -13 3 0 15 -9 26 -20 11 -11 27 -20 35 -20 8 0 15 -4 15 -10 0 -5 6
-10 14 -10 8 0 16 -3 18 -8 7 -15 226 -109 298 -127 162 -41 223 -48 392 -49
l128 -1 1 -85 c0 -47 2 -94 4 -105 2 -11 6 -42 9 -70 12 -104 105 -379 140
-410 6 -6 12 -17 14 -25 2 -8 8 -18 14 -21 5 -3 9 -9 9 -13 -5 -31 204 -274
299 -347 17 -13 37 -29 44 -35 29 -27 149 -104 162 -104 8 0 14 -4 14 -10 0
-5 6 -10 14 -10 7 0 25 -9 40 -21 14 -11 26 -18 26 -15 0 3 23 -6 50 -20 28
-14 59 -26 70 -27 11 -1 20 -5 20 -9 0 -4 8 -8 18 -8 10 0 22 -4 28 -9 5 -5
23 -12 41 -14 17 -3 37 -8 43 -12 6 -4 22 -9 36 -11 13 -2 34 -6 47 -9 12 -3
34 -7 49 -9 14 -2 36 -7 49 -11 31 -10 132 -16 274 -17 110 -1 155 2 255 19
19 3 41 6 48 6 6 0 12 3 12 7 0 4 10 6 22 5 12 -1 62 11 110 26 48 14 89 24
92 21 4 -3 6 -1 6 5 0 9 36 24 55 23 23 -1 264 138 342 197 81 61 254 223 239
223 -3 0 11 16 30 36 19 20 34 40 34 45 0 4 6 14 13 21 44 45 133 223 171 345
29 92 38 136 51 234 13 96 7 277 -11 359 -3 14 -7 36 -10 50 -3 14 -7 30 -8
35 -7 36 -52 161 -61 167 -5 4 -7 8 -3 8 4 0 -4 22 -17 49 -14 27 -25 54 -25
60 0 6 -4 11 -10 11 -5 0 -10 5 -10 11 0 6 -13 30 -30 54 -16 24 -30 47 -30
51 0 4 -11 17 -24 29 -14 13 -22 26 -19 29 4 3 1 6 -5 6 -7 0 -12 7 -12 15 0
8 -4 15 -10 15 -5 0 -16 12 -24 28 -8 15 -15 25 -16 22 0 -3 -33 26 -73 65
-40 38 -85 80 -101 93 -45 38 -173 122 -185 122 -6 0 -11 5 -11 10 0 6 -6 10
-14 10 -7 0 -19 7 -26 15 -9 10 -9 15 -1 15 24 0 185 156 176 170 -3 5 3 17
15 27 11 10 20 24 20 32 0 8 3 11 7 8 6 -7 93 115 93 131 0 5 7 15 15 22 8 6
14 15 13 18 -1 4 6 24 16 45 20 46 45 151 51 218 2 27 7 54 10 59 4 6 3 10 -2
10 -4 0 -8 24 -9 53 -1 48 -3 66 -20 141 -17 80 -89 218 -155 300 -64 78 -201
196 -229 196 -5 0 -10 5 -10 10 0 6 -6 10 -14 10 -7 0 -19 7 -26 15 -7 9 -15
13 -18 10 -3 -3 -12 1 -21 8 -19 16 -139 61 -201 75 -25 6 -56 14 -70 17 -96
23 -394 25 -417 2 -3 -4 -17 -7 -30 -7 -22 0 -24 3 -18 40 19 125 23 335 10
470 -5 41 -8 87 -9 103 0 15 -5 27 -9 27 -5 0 -6 4 -2 9 7 12 -15 26 -24 15
-6 -9 -19 -12 -68 -17 -13 -1 -23 -6 -23 -11 0 -5 -3 -7 -6 -3 -3 3 -25 -1
-47 -10 -23 -8 -46 -16 -52 -17 -5 -1 -28 -11 -50 -21 -22 -10 -42 -19 -45
-19 -3 -1 -34 -16 -70 -35 -160 -83 -296 -195 -414 -341 -12 -16 -21 -20 -24
-12 -2 7 -7 12 -12 12 -5 0 -28 18 -52 41 -68 64 -74 69 -83 69 -5 0 -18 9
-29 19 -42 38 -249 149 -338 182 -21 7 -38 17 -38 22 0 4 -5 5 -10 2 -6 -4
-16 -3 -23 2 -10 8 -108 42 -139 49 -5 1 -9 2 -10 4 -4 2 -37 10 -63 15 -11 2
-22 4 -25 5 -3 1 -8 2 -12 1 -5 0 -8 4 -8 10 0 5 -4 8 -9 5 -5 -4 -20 -2 -33
3 -12 5 -41 11 -63 15 -45 7 -80 14 -80 16 0 2 -32 7 -77 13 -33 4 -38 2 -39
-17z"/>
</g>
</svg>
